<svg width="75" height="75" viewBox="0 0 75 75" fill="none" xmlns="http://www.w3.org/2000/svg">
<path d="M34.5324 53.4596V41.5236L21.1044 22.1275H12.1523V68.3796C43.3534 83.9197 63.0921 68.4533 68.6638 59.2033C79.807 38.4832 73.3068 19.7365 68.6638 12.9531H65.878C68.1066 28.4932 66.1875 41.0116 64.9493 45.3282C56.0347 72.7083 30.7557 67.0863 19.6124 60.9196V34.0635L34.5324 53.4596Z" fill="#1DA1F2"/>
<path d="M40.5005 53.4575H34.5325V22.1255H41.9925L52.4365 40.0295V10.1894C42.2219 5.87273 19.8192 3.33105 10.1617 24.0511C8.92363 27.7511 7.00456 39.9612 9.23318 59.2012H5.51871C-5.62454 33.3012 2.45438 14.895 9.23318 9.25106C27.8184 -6.22263 52.4677 1.03873 59.8965 7.20542V53.4575H52.4365L40.5005 34.0615V53.4575Z" fill="white"/>
</svg>
