<svg width="51" height="51" viewBox="0 0 51 51" fill="none" xmlns="http://www.w3.org/2000/svg">
<path d="M23.1446 35.8297V27.8297L14.1446 14.8297H8.14453V45.8297C29.0567 56.2453 42.2864 45.8791 46.0207 39.6794C53.4894 25.7919 49.1327 13.2271 46.0207 8.68066H44.1536C45.6473 19.0962 44.361 27.4865 43.5312 30.3797C37.5563 48.731 20.6132 44.9629 13.1446 40.8297V22.8297L23.1446 35.8297Z" fill="#1DA1F2"/>
<path d="M27.145 35.8294H23.145V14.8294H28.145L35.145 26.8293V6.82935C28.2988 3.93614 13.2836 2.2326 6.8108 16.12C5.98097 18.5999 4.69473 26.7836 6.18844 39.679H3.69886C-3.76979 22.3198 1.64502 9.98319 6.18844 6.20043C18.645 -4.17065 35.1659 0.696198 40.145 4.82936V35.8294H35.145L27.145 22.8293V35.8294Z" fill="black"/>
</svg>
